<svg width="40" height="37" viewBox="0 0 40 37" fill="none" xmlns="http://www.w3.org/2000/svg">
<g filter="url(#filter0_d_188_477)">
<path d="M30.2009 29C29.5532 28.9738 28.9415 28.6948 28.4972 28.2227C28.0529 27.7506 27.8114 27.1232 27.8245 26.475C27.8376 25.8269 28.1043 25.2097 28.5673 24.7559C29.0303 24.3022 29.6527 24.048 30.301 24.048C30.9493 24.048 31.5717 24.3022 32.0347 24.7559C32.4977 25.2097 32.7644 25.8269 32.7775 26.475C32.7906 27.1232 32.549 27.7506 32.1047 28.2227C31.6604 28.6948 31.0488 28.9738 30.401 29H30.2009ZM10.7529 26.32C10.7529 25.79 10.9101 25.2718 11.2046 24.8311C11.4991 24.3904 11.9176 24.0469 12.4073 23.844C12.8971 23.6412 13.4359 23.5881 13.9558 23.6915C14.4757 23.7949 14.9532 24.0502 15.328 24.425C15.7028 24.7998 15.9581 25.2773 16.0615 25.7972C16.1649 26.317 16.1118 26.8559 15.9089 27.3456C15.7061 27.8353 15.3626 28.2539 14.9219 28.5483C14.4812 28.8428 13.963 29 13.433 29C13.0809 29.0003 12.7321 28.9311 12.4067 28.7966C12.0814 28.662 11.7857 28.4646 11.5366 28.2158C11.2875 27.9669 11.09 27.6713 10.9552 27.3461C10.8204 27.0208 10.751 26.6721 10.751 26.32H10.7529ZM14.553 20.686C14.2935 20.6868 14.0409 20.6024 13.8341 20.4457C13.6273 20.2891 13.4776 20.0689 13.408 19.819L8.57495 2.36401H5.18201C4.86852 2.36401 4.56786 2.23947 4.34619 2.01781C4.12452 1.79614 4 1.49549 4 1.18201C4 0.868519 4.12452 0.567873 4.34619 0.346205C4.56786 0.124537 4.86852 5.81268e-06 5.18201 5.81268e-06H9.46301C9.7225 -0.00080736 9.97504 0.0837201 10.1818 0.240568C10.3885 0.397416 10.5378 0.617884 10.6069 0.868006L15.4399 18.323H28.6179L33.001 8.27501H18.401C18.2428 8.27961 18.0854 8.25242 17.9379 8.19507C17.7904 8.13771 17.6559 8.05134 17.5424 7.94108C17.4288 7.83082 17.3386 7.69891 17.277 7.55315C17.2154 7.40739 17.1836 7.25075 17.1836 7.0925C17.1836 6.93426 17.2154 6.77762 17.277 6.63186C17.3386 6.4861 17.4288 6.35419 17.5424 6.24393C17.6559 6.13367 17.7904 6.0473 17.9379 5.98994C18.0854 5.93259 18.2428 5.90541 18.401 5.91001H34.814C35.0097 5.90996 35.2022 5.95866 35.3744 6.05172C35.5465 6.14478 35.6928 6.27926 35.7999 6.44301C35.9078 6.60729 35.9734 6.79569 35.9908 6.99145C36.0083 7.18721 35.9771 7.38424 35.9 7.565L30.495 19.977C30.4026 20.1876 30.251 20.3668 30.0585 20.4927C29.866 20.6186 29.641 20.6858 29.411 20.686H14.553Z" fill="#E8E8E8"/>
<path d="M11.4171 27.1546C11.3192 26.9185 11.2637 26.6672 11.2529 26.4122V26.32C11.2529 25.8888 11.3808 25.4674 11.6203 25.1089C11.8599 24.7504 12.2003 24.4709 12.5987 24.3059C12.997 24.1409 13.4354 24.0978 13.8583 24.1819C14.2811 24.266 14.6696 24.4736 14.9744 24.7785C15.2794 25.0834 15.487 25.4719 15.5711 25.8947C15.6552 26.3175 15.612 26.7559 15.447 27.1543C15.282 27.5526 15.0026 27.8931 14.6441 28.1326C14.2856 28.3722 13.8641 28.5 13.433 28.5H13.4326C13.1462 28.5002 12.8625 28.444 12.5978 28.3345C12.3331 28.2251 12.0927 28.0645 11.89 27.8621C11.6875 27.6596 11.5268 27.4193 11.4171 27.1546ZM14.553 20.186L14.5515 20.186C14.4015 20.1864 14.2555 20.1376 14.1359 20.0471C14.0165 19.9567 13.93 19.8296 13.8897 19.6852C13.8897 19.6851 13.8897 19.685 13.8896 19.6848L9.05682 2.23058L8.95532 1.86401H8.57495H5.18201C5.00112 1.86401 4.82764 1.79215 4.69974 1.66425C4.57185 1.53636 4.5 1.36289 4.5 1.18201C4.5 1.00112 4.57185 0.827652 4.69974 0.699758C4.82764 0.571864 5.00112 0.500006 5.18201 0.500006L9.46301 0.500008L9.46458 0.500003C9.61439 0.499534 9.76018 0.548331 9.87954 0.638891C9.99883 0.729404 10.0851 0.856665 10.125 1.00114L10.1251 1.00143L14.9581 18.4564L15.0596 18.823H15.4399H28.6179H28.9453L29.0762 18.5229L33.4593 8.47492L33.7646 7.77501H33.001H18.401H18.3937L18.3865 7.77522C18.2952 7.77787 18.2043 7.76218 18.1191 7.72906C18.0339 7.69594 17.9563 7.64607 17.8907 7.58243C17.8252 7.51876 17.7731 7.44259 17.7375 7.35846C17.7019 7.27428 17.6836 7.18384 17.6836 7.0925C17.6836 7.00117 17.7019 6.91073 17.7375 6.82655C17.7731 6.74241 17.8252 6.66625 17.8907 6.60258C17.9562 6.53894 18.0339 6.48907 18.1191 6.45595C18.2043 6.42283 18.2952 6.40714 18.3865 6.40979L18.3937 6.41001H18.401H34.814H34.8141C34.9267 6.40998 35.0375 6.43801 35.1366 6.49157C35.2357 6.54512 35.3199 6.62252 35.3815 6.71678L35.382 6.71745C35.4446 6.81285 35.4827 6.92223 35.4928 7.03584C35.5029 7.14909 35.485 7.26293 35.4407 7.36736C35.4405 7.36784 35.4403 7.36832 35.4401 7.36881L30.0371 19.7762C30.037 19.7764 30.0369 19.7766 30.0368 19.7768C29.9834 19.8983 29.8958 20.0016 29.7848 20.0743C29.6735 20.147 29.5435 20.1859 29.4105 20.186L14.553 20.186ZM30.2116 28.5C29.6981 28.4768 29.2137 28.2545 28.8613 27.88C28.5067 27.5032 28.3139 27.0024 28.3244 26.4851C28.3348 25.9678 28.5477 25.4752 28.9172 25.113C29.2868 24.7509 29.7836 24.548 30.301 24.548C30.8184 24.548 31.3151 24.7509 31.6847 25.113C32.0543 25.4752 32.2671 25.9678 32.2776 26.4851C32.288 27.0024 32.0953 27.5032 31.7406 27.88C31.3882 28.2545 30.9038 28.4768 30.3903 28.5H30.2116Z" stroke="black"/>
</g>
<defs>
<filter id="filter0_d_188_477" x="0" y="0" width="39.9955" height="37" filterUnits="userSpaceOnUse" color-interpolation-filters="sRGB">
<feFlood flood-opacity="0" result="BackgroundImageFix"/>
<feColorMatrix in="SourceAlpha" type="matrix" values="0 0 0 0 0 0 0 0 0 0 0 0 0 0 0 0 0 0 127 0" result="hardAlpha"/>
<feOffset dy="4"/>
<feGaussianBlur stdDeviation="2"/>
<feComposite in2="hardAlpha" operator="out"/>
<feColorMatrix type="matrix" values="0 0 0 0 0 0 0 0 0 0 0 0 0 0 0 0 0 0 0.25 0"/>
<feBlend mode="normal" in2="BackgroundImageFix" result="effect1_dropShadow_188_477"/>
<feBlend mode="normal" in="SourceGraphic" in2="effect1_dropShadow_188_477" result="shape"/>
</filter>
</defs>
</svg>
