<svg width="34" height="35" viewBox="0 0 34 35" fill="none" xmlns="http://www.w3.org/2000/svg">
<g filter="url(#filter0_d_188_471)">
<path d="M22.0589 17.6251C23.6705 15.865 24.6275 13.6039 24.769 11.2216C24.9106 8.83932 24.2281 6.48087 22.8362 4.54232C21.4443 2.60377 19.4278 1.20318 17.1252 0.575765C14.8227 -0.0516554 12.3744 0.132305 10.1914 1.09675C8.0085 2.0612 6.22389 3.74739 5.1373 5.87217C4.05071 7.99695 3.72832 10.4309 4.22426 12.7653C4.72021 15.0997 6.00428 17.1923 7.86085 18.6919C9.71741 20.1914 12.0334 21.0064 14.4199 21.0001C16.6723 21.0031 18.8638 20.2691 20.6599 18.9101L28.4079 26.7171C28.4934 26.8061 28.5958 26.8772 28.7091 26.9261C28.8225 26.9751 28.9444 27.0009 29.0679 27.0021C29.1916 27.0024 29.314 26.9773 29.4276 26.9283C29.5411 26.8793 29.6434 26.8074 29.7279 26.7171C29.9018 26.5362 29.999 26.295 29.999 26.0441C29.999 25.7931 29.9018 25.5519 29.7279 25.371L22.0589 17.6251ZM5.88589 10.5001C5.89873 8.81477 6.41021 7.17101 7.35586 5.776C8.30151 4.38098 9.63899 3.29715 11.1997 2.66114C12.7604 2.02513 14.4745 1.86542 16.1258 2.20213C17.7772 2.53884 19.2919 3.3569 20.479 4.55319C21.6661 5.74948 22.4725 7.27044 22.7965 8.92433C23.1204 10.5782 22.9475 12.291 22.2995 13.8468C21.6515 15.4026 20.5574 16.7316 19.1551 17.6665C17.7529 18.6014 16.1052 19.1002 14.4199 19.1C12.1484 19.0892 9.97409 18.1775 8.3741 16.5652C6.77412 14.9528 5.87924 12.7715 5.88589 10.5001V10.5001Z" fill="#E8E8E8"/>
<path d="M21.6901 17.2874L21.3686 17.6385L21.7036 17.9768L29.3696 25.7198C29.4526 25.8073 29.499 25.9233 29.499 26.0441C29.499 26.1658 29.4518 26.2828 29.3675 26.3705L29.3674 26.3705L29.3628 26.3754C29.3253 26.4155 29.2798 26.4475 29.2294 26.4693C29.1793 26.4909 29.1254 26.502 29.0709 26.5021C29.0146 26.5013 28.959 26.4894 28.9074 26.4671C28.8552 26.4446 28.808 26.4118 28.7686 26.3708L28.7686 26.3707L28.7628 26.3648L21.0148 18.5578L20.7068 18.2475L20.3582 18.5113C18.6491 19.8045 16.5638 20.503 14.4206 20.5L14.4186 20.5001C12.1469 20.5061 9.94228 19.7303 8.17501 18.3029C6.40774 16.8755 5.18544 14.8835 4.71335 12.6614C4.24126 10.4393 4.54815 8.1224 5.58247 6.09982C6.61679 4.07725 8.31556 2.47216 10.3935 1.5541C12.4714 0.636047 14.802 0.460935 16.9938 1.05818C19.1856 1.65542 21.1051 2.98864 22.4301 4.83394C23.755 6.67925 24.4046 8.92426 24.2699 11.192C24.1352 13.4597 23.2243 15.612 21.6901 17.2874ZM14.4175 19.6H14.4198C16.2039 19.6002 17.9481 19.0722 19.4325 18.0825C20.9169 17.0929 22.0751 15.6859 22.7611 14.039C23.447 12.3921 23.6301 10.579 23.2871 8.82821C22.9442 7.07743 22.0906 5.46737 20.8339 4.201C19.5773 2.93463 17.9738 2.06864 16.2257 1.71221C14.4776 1.35577 12.6632 1.52485 11.011 2.19811C9.35887 2.87138 7.94303 4.0187 6.94198 5.49544C5.94093 6.97218 5.39949 8.71224 5.38591 10.4962L5.88589 10.5001L5.38589 10.4986C5.37886 12.9025 6.32592 15.211 8.01919 16.9174C9.71247 18.6237 12.0136 19.5886 14.4175 19.6Z" stroke="black"/>
</g>
<defs>
<filter id="filter0_d_188_471" x="-0.00268555" y="0.210083" width="34.0016" height="34.792" filterUnits="userSpaceOnUse" color-interpolation-filters="sRGB">
<feFlood flood-opacity="0" result="BackgroundImageFix"/>
<feColorMatrix in="SourceAlpha" type="matrix" values="0 0 0 0 0 0 0 0 0 0 0 0 0 0 0 0 0 0 127 0" result="hardAlpha"/>
<feOffset dy="4"/>
<feGaussianBlur stdDeviation="2"/>
<feComposite in2="hardAlpha" operator="out"/>
<feColorMatrix type="matrix" values="0 0 0 0 0 0 0 0 0 0 0 0 0 0 0 0 0 0 0.25 0"/>
<feBlend mode="normal" in2="BackgroundImageFix" result="effect1_dropShadow_188_471"/>
<feBlend mode="normal" in="SourceGraphic" in2="effect1_dropShadow_188_471" result="shape"/>
</filter>
</defs>
</svg>
