<svg width="37" height="37" viewBox="0 0 37 37" fill="none" xmlns="http://www.w3.org/2000/svg">
<g filter="url(#filter0_d_188_475)">
<path d="M18.5 19.937C23 19.937 26.656 15.464 26.656 9.968C26.656 4.472 23 0 18.5 0C17.3631 0.0217413 16.2463 0.303398 15.2351 0.823397C14.2239 1.34339 13.3451 2.08794 12.666 3C11.1266 4.99573 10.3082 7.45381 10.344 9.974C10.344 15.465 14 19.937 18.5 19.937ZM18.5 1.813C22 1.813 24.844 5.472 24.844 9.969C24.844 14.466 21.998 18.125 18.5 18.125C15.002 18.125 12.156 14.465 12.155 9.969C12.154 5.473 15 1.813 18.5 1.813ZM24.844 18.125C24.6036 18.125 24.373 18.2205 24.203 18.3905C24.033 18.5605 23.9375 18.7911 23.9375 19.0315C23.9375 19.2719 24.033 19.5025 24.203 19.6725C24.373 19.8425 24.6036 19.938 24.844 19.938C26.526 19.9399 28.1386 20.6088 29.3279 21.7982C30.5172 22.9875 31.1861 24.6 31.188 26.282C31.1875 26.5221 31.0918 26.7523 30.922 26.9221C30.7522 27.0918 30.5221 27.1875 30.282 27.188H6.71997C6.47985 27.1875 6.24975 27.0918 6.07996 26.9221C5.91016 26.7523 5.81449 26.5221 5.81396 26.282C5.81608 24.6001 6.48517 22.9877 7.67444 21.7985C8.86371 20.6092 10.4761 19.9401 12.158 19.938C12.3982 19.938 12.6287 19.8425 12.7986 19.6726C12.9685 19.5027 13.064 19.2723 13.064 19.032C13.064 18.7917 12.9685 18.5613 12.7986 18.3914C12.6287 18.2215 12.3982 18.126 12.158 18.126C9.99541 18.1279 7.92201 18.9875 6.39258 20.5164C4.86314 22.0453 4.00265 24.1185 4 26.281C4.00079 27.0019 4.2875 27.693 4.79724 28.2027C5.30698 28.7125 5.99811 28.9992 6.71899 29H30.282C31.0027 28.9989 31.6936 28.7121 32.2031 28.2024C32.7126 27.6927 32.9992 27.0017 33 26.281C32.9974 24.1187 32.1372 22.0457 30.6083 20.5168C29.0793 18.9878 27.0063 18.1276 24.844 18.125Z" fill="#E8E8E8"/>
<path d="M13.0619 3.30538L13.062 3.30542L13.0671 3.29859C13.7006 2.44774 14.5204 1.75316 15.4638 1.26805C16.4057 0.783676 17.4458 0.520983 18.5048 0.500002C22.6373 0.503192 26.156 4.65159 26.156 9.968C26.156 15.2865 22.6346 19.437 18.5 19.437C14.3652 19.437 10.844 15.2873 10.844 9.974H10.844L10.8439 9.9669C10.8097 7.55963 11.5915 5.21169 13.0619 3.30538ZM25.344 9.969C25.344 5.32016 22.3859 1.313 18.5 1.313C14.6143 1.313 11.654 5.321 11.655 9.96911C11.6561 14.6169 14.6162 18.625 18.5 18.625C22.3838 18.625 25.344 14.618 25.344 9.969Z" stroke="black"/>
</g>
<defs>
<filter id="filter0_d_188_475" x="0" y="0" width="37" height="37" filterUnits="userSpaceOnUse" color-interpolation-filters="sRGB">
<feFlood flood-opacity="0" result="BackgroundImageFix"/>
<feColorMatrix in="SourceAlpha" type="matrix" values="0 0 0 0 0 0 0 0 0 0 0 0 0 0 0 0 0 0 127 0" result="hardAlpha"/>
<feOffset dy="4"/>
<feGaussianBlur stdDeviation="2"/>
<feComposite in2="hardAlpha" operator="out"/>
<feColorMatrix type="matrix" values="0 0 0 0 0 0 0 0 0 0 0 0 0 0 0 0 0 0 0.25 0"/>
<feBlend mode="normal" in2="BackgroundImageFix" result="effect1_dropShadow_188_475"/>
<feBlend mode="normal" in="SourceGraphic" in2="effect1_dropShadow_188_475" result="shape"/>
</filter>
</defs>
</svg>
